<?xml version="1.0" standalone="no"?><!DOCTYPE svg PUBLIC "-//W3C//DTD SVG 1.1//EN" "http://www.w3.org/Graphics/SVG/1.1/DTD/svg11.dtd"><svg t="1737908739724" class="icon" viewBox="0 0 1024 1024" version="1.1" xmlns="http://www.w3.org/2000/svg" p-id="18895" xmlns:xlink="http://www.w3.org/1999/xlink" width="200" height="200"><path d="M513.92 242.688c26.752 0 52.053333 4.693333 75.776 14.250667a196.906667 196.906667 0 0 1 62.848 39.466666c17.92 16.810667 31.573333 36.266667 40.874667 58.453334a37.546667 37.546667 0 0 1-7.338667 40.96 32.597333 32.597333 0 0 1-43.306667 4.352 36.394667 36.394667 0 0 1-13.269333-15.701334 105.258667 105.258667 0 0 0-44.373333-50.090666c-20.48-12.373333-44.202667-18.602667-71.210667-18.602667-13.269333 0-27.349333 1.706667-42.24 5.12-14.677333 3.413333-28.544 8.618667-41.557333 15.701333-13.056 6.826667-23.637333 15.445333-31.786667 25.941334a57.813333 57.813333 0 0 0-12.202667 36.522666c0 11.221333 3.498667 20.949333 10.453334 29.269334 6.997333 8.021333 14.805333 14.336 23.424 18.986666 20.224 10.453333 42.581333 17.792 66.986666 21.930667 24.746667 4.138667 49.621333 8.149333 74.752 12.074667 25.173333 3.84 48.554667 10.666667 70.186667 20.48 13.738667 6.058667 26.88 14.464 39.466667 25.173333 12.586667 10.709333 22.826667 23.765333 30.72 39.125333 7.936 15.36 11.861333 33.365333 11.861333 54.058667 0 26.794667-6.144 50.346667-18.474667 70.528-12.373333 20.224-28.544 37.034667-48.554666 50.432-20.053333 13.397333-41.813333 23.509333-65.28 30.336a250.922667 250.922667 0 0 1-68.437334 9.898667c-30.293333 0-58.666667-5.034667-85.205333-15.018667a212.309333 212.309333 0 0 1-69.504-43.093333 191.189333 191.189333 0 0 1-45.397333-65.792 36.736 36.736 0 0 1 6.997333-40.192 33.152 33.152 0 0 1 24.789333-10.965334 33.28 33.28 0 0 1 19.2 6.570667c6.272 4.138667 10.581333 9.386667 12.928 15.701333 10.24 24.618667 27.562667 44.117333 52.053334 58.453334 24.405333 14.165333 52.48 21.205333 84.138666 21.205333 19.754667 0 39.68-2.986667 59.733334-9.130667a126.72 126.72 0 0 0 50.261333-28.842666c13.696-13.184 20.565333-29.866667 20.565333-50.090667 0-12.885333-4.181333-23.466667-12.544-31.786667-8.149333-8.533333-17.109333-14.976-26.88-19.370666a263.338667 263.338667 0 0 0-70.912-20.48c-25.130667-3.84-50.133333-7.893333-75.093333-12.032a235.861333 235.861333 0 0 1-69.802667-23.765334 165.205333 165.205333 0 0 1-50.261333-42.368c-14.933333-18.773333-22.357333-42.538667-22.357333-71.253333 0-25.344 5.802667-47.658667 17.450666-66.901333 11.861333-19.498667 27.477333-35.84 46.805334-48.981334 19.541333-13.397333 40.96-23.466667 64.213333-30.293333a246.058667 246.058667 0 0 1 69.504-10.24z" p-id="18896" fill="#1296db"></path><path d="M512 986.666667c262.144 0 474.666667-212.48 474.666667-474.666667C986.666667 249.856 774.186667 37.333333 512 37.333333 249.856 37.333333 37.333333 249.813333 37.333333 512c0 262.144 212.48 474.666667 474.666667 474.666667z m0-867.968a393.301333 393.301333 0 1 1 0 786.602666 393.301333 393.301333 0 0 1 0-786.602666z" p-id="18897" fill="#1296db"></path></svg>